<?xml version="1.0" standalone="no"?>
<!DOCTYPE svg PUBLIC "-//W3C//DTD SVG 20010904//EN"
 "http://www.w3.org/TR/2001/REC-SVG-20010904/DTD/svg10.dtd">
<svg version="1.0" xmlns="http://www.w3.org/2000/svg"
 width="181.000000pt" height="65.000000pt" viewBox="0 0 181.000000 65.000000"
 preserveAspectRatio="xMidYMid meet">

<g transform="translate(0.000000,65.000000) scale(0.100000,-0.100000)"
fill="#000000" stroke="none">
<path d="M350 635 c-17 -20 -8 -49 16 -53 16 -2 23 4 28 23 11 43 -17 62 -44
30z"/>
<path d="M1450 635 c-17 -21 -8 -50 17 -53 17 -3 24 3 29 22 10 42 -19 63 -46
31z"/>
<path d="M160 625 c-10 -12 -10 -21 -1 -41 17 -38 46 -28 46 16 0 39 -23 52
-45 25z"/>
<path d="M591 583 c-20 -21 -44 -49 -53 -63 l-17 -25 2 35 c2 29 -1 35 -18 35
-25 0 -40 -32 -60 -126 -17 -80 -43 -134 -66 -134 -18 0 -24 74 -11 142 11 60
7 73 -23 73 -19 0 -26 -8 -34 -37 -6 -21 -11 -47 -11 -58 0 -22 -51 -108 -58
-100 -3 3 -8 41 -12 86 -8 90 -26 123 -55 99 -15 -12 -16 -29 -10 -125 l7
-112 -33 -23 c-88 -60 -139 -125 -139 -177 0 -47 25 -73 72 -73 59 0 109 52
137 144 12 37 21 82 21 98 0 21 11 43 34 69 l35 38 6 -30 c6 -26 38 -59 57
-59 4 0 23 14 43 31 25 22 35 27 35 16 0 -9 4 -18 9 -21 20 -13 40 8 46 47 13
76 108 257 135 257 12 0 12 -102 0 -194 -10 -79 -5 -98 22 -94 14 2 25 21 41
69 41 120 87 161 87 75 0 -65 18 -147 37 -168 23 -25 41 -23 73 12 26 28 28
29 33 9 10 -39 41 -18 53 37 19 88 107 254 134 254 13 0 12 -115 0 -198 -10
-74 -5 -94 22 -90 14 2 25 21 41 69 26 77 52 119 72 119 11 0 15 -11 15 -37 0
-70 19 -157 39 -176 24 -25 56 -15 81 25 l18 30 16 -30 c8 -16 22 -32 31 -36
24 -9 64 11 77 39 12 27 28 34 28 12 0 -17 39 -53 67 -61 27 -9 81 14 110 45
24 27 83 137 83 157 0 27 -17 9 -49 -53 -33 -65 -89 -125 -116 -125 -8 0 -21
10 -29 22 -19 27 -22 98 -4 98 6 0 31 9 55 21 95 46 96 149 1 149 -63 0 -107
-51 -128 -146 -14 -66 -40 -124 -56 -124 -20 0 -27 61 -15 136 11 73 9 84 -18
84 -26 0 -37 -17 -49 -83 -6 -32 -20 -78 -31 -103 -33 -74 -49 -56 -58 66 -8
118 -40 147 -102 94 l-31 -26 0 64 c0 69 -10 88 -48 88 -24 0 -78 -47 -115
-100 l-17 -25 6 33 c4 24 2 34 -11 38 -27 11 -43 -16 -70 -119 -50 -193 -80
-208 -92 -47 -8 118 -45 150 -105 93 l-28 -27 0 65 c0 37 -5 70 -12 77 -23 23
-59 13 -97 -25z m1113 -55 c15 -25 -8 -65 -49 -85 -19 -9 -37 -14 -41 -11 -11
12 7 66 32 93 26 28 41 29 58 3z m-1544 -326 c0 -42 -27 -126 -51 -156 -45
-57 -103 -14 -79 60 11 31 101 124 121 124 5 0 9 -13 9 -28z"/>
</g>
</svg>
